<svg width="24" height="24" viewBox="0 0 24 24" fill="none" xmlns="http://www.w3.org/2000/svg">
<g clip-path="url(#clip0_423_638)">
<path fill-rule="evenodd" clip-rule="evenodd" d="M12 0.283203L11.8272 0.583203L10.1537 3.47808H11.4V13.7933L2.46648 18.9509L1.8432 17.8714L0 21.0679H0.34584L3.69 21.0698L3.06648 19.9903L12 14.8327L20.9335 19.9903L20.31 21.0698L24 21.0679L23.8272 20.7679L22.1568 17.8714L21.5335 18.9511L12.6 13.7935V3.47784H13.8463L12 0.283203Z" fill="white"/>
<path fill-rule="evenodd" clip-rule="evenodd" d="M11.7739 6.82824L4.75489 11.4312C4.59313 11.5481 4.54969 11.681 4.54681 11.802V18.6804C4.54681 18.8316 4.62553 18.9722 4.75489 19.0512L11.7739 23.6539C11.9431 23.7463 12.1152 23.7307 12.2295 23.6515L19.2451 19.0512C19.3087 19.0124 19.3612 18.9579 19.3976 18.893C19.4341 18.8281 19.4532 18.7549 19.4532 18.6804V11.802C19.4518 11.6186 19.374 11.5219 19.2384 11.4266L12.2261 6.82824C12.0591 6.73296 11.928 6.77832 11.7739 6.82824ZM12 7.70664L18.1236 11.7641L11.9962 15.8935L5.81521 11.8018L12 7.70664ZM5.41441 12.5746L11.5661 16.6488V22.5108L5.41489 18.4366L5.41441 12.5746ZM18.5856 12.5746V18.4363L12.4339 22.5106V16.6483L18.5856 12.5746Z" fill="white"/>
</g>
<defs>
<clipPath id="clip0_423_638">
<rect width="24" height="24" fill="white"/>
</clipPath>
</defs>
</svg>
