<svg width="32" height="33" viewBox="0 0 32 33" fill="none" xmlns="http://www.w3.org/2000/svg">
<path fill-rule="evenodd" clip-rule="evenodd" d="M7.33331 24.5C7.33331 24.3232 7.40355 24.1536 7.52858 24.0286C7.6536 23.9036 7.82317 23.8333 7.99998 23.8333H24C24.1768 23.8333 24.3464 23.9036 24.4714 24.0286C24.5964 24.1536 24.6666 24.3232 24.6666 24.5C24.6666 24.6768 24.5964 24.8464 24.4714 24.9714C24.3464 25.0964 24.1768 25.1666 24 25.1666H7.99998C7.82317 25.1666 7.6536 25.0964 7.52858 24.9714C7.40355 24.8464 7.33331 24.6768 7.33331 24.5Z" fill="white"/>
<path d="M12 15.8333H9.33335C8.96516 15.8333 8.66669 16.1318 8.66669 16.5V24.5C8.66669 24.8682 8.96516 25.1666 9.33335 25.1666H12C12.3682 25.1666 12.6667 24.8682 12.6667 24.5V16.5C12.6667 16.1318 12.3682 15.8333 12 15.8333Z" fill="white"/>
<path d="M17.3333 7.83331H14.6667C14.2985 7.83331 14 8.13179 14 8.49998V24.5C14 24.8682 14.2985 25.1666 14.6667 25.1666H17.3333C17.7015 25.1666 18 24.8682 18 24.5V8.49998C18 8.13179 17.7015 7.83331 17.3333 7.83331Z" fill="white"/>
<path d="M22.6666 11.8333H20C19.6318 11.8333 19.3333 12.1318 19.3333 12.5V24.5C19.3333 24.8682 19.6318 25.1666 20 25.1666H22.6666C23.0348 25.1666 23.3333 24.8682 23.3333 24.5V12.5C23.3333 12.1318 23.0348 11.8333 22.6666 11.8333Z" fill="white"/>
</svg>
