<svg width="24" height="24" viewBox="0 0 24 24" fill="none" xmlns="http://www.w3.org/2000/svg">
<path d="M10.7183 19.8451L10.7179 19.8448C8.13802 17.5053 6.01664 15.5791 4.53732 13.7693C3.06074 11.9628 2.25 10.3028 2.25 8.5C2.25 5.54837 4.55777 3.25 7.5 3.25C9.16442 3.25 10.766 4.02611 11.8103 5.24282L12 5.46386L12.1897 5.24282C13.234 4.02611 14.8356 3.25 16.5 3.25C19.4422 3.25 21.75 5.54837 21.75 8.5C21.75 10.3028 20.9393 11.9628 19.4627 13.7693C17.9834 15.5791 15.862 17.5053 13.2821 19.8448L13.2817 19.8451L12 21.0119L10.7183 19.8451Z" fill="#FF220D" stroke="white" stroke-width="0.5"/>
</svg>
