<svg width="20" height="20" viewBox="0 0 20 20" fill="none" xmlns="http://www.w3.org/2000/svg">
<g clip-path="url(#clip0_273_310)">
<g clip-path="url(#clip1_273_310)">
<path d="M17.5052 14.2537L17.1173 14.5485L17.5984 14.6253C18.8411 14.8236 19.7917 15.8911 19.7917 17.1875C19.7917 18.6256 18.6256 19.7917 17.1875 19.7917H2.8125C1.37443 19.7917 0.208333 18.6256 0.208333 17.1875C0.208333 15.8911 1.1589 14.8236 2.40159 14.6253L2.88265 14.5485L2.49482 14.2537C1.86719 13.7766 1.45833 13.0324 1.45833 12.1875C1.45833 10.7491 2.62442 9.58333 4.0625 9.58333H4.61211H5.16702L4.74922 9.21814C4.26677 8.79645 3.95833 8.18618 3.95833 7.5C3.95833 6.2342 4.9842 5.20833 6.25 5.20833H6.875C8.71584 5.20833 10.2083 3.71584 10.2083 1.875C10.2083 1.27088 10.0435 0.707793 9.76214 0.22132C9.84169 0.213256 9.92047 0.208333 10 0.208333C11.956 0.208333 13.5417 1.79397 13.5417 3.75C13.5417 4.16181 13.4574 4.55476 13.324 4.93026L13.2252 5.20833H13.5203H13.75C15.0158 5.20833 16.0417 6.2342 16.0417 7.5C16.0417 8.18618 15.7332 8.79645 15.2508 9.21814L14.833 9.58333H15.3879H15.9375C17.3756 9.58333 18.5417 10.7491 18.5417 12.1875C18.5417 13.0324 18.1328 13.7766 17.5052 14.2537Z" fill="#FF220D" stroke="white" stroke-width="0.416667"/>
</g>
</g>
<defs>
<clipPath id="clip0_273_310">
<rect width="20" height="20" fill="white"/>
</clipPath>
<clipPath id="clip1_273_310">
<rect width="20" height="20" fill="white"/>
</clipPath>
</defs>
</svg>
